<?xml version="1.0" encoding="UTF-8" standalone="no"?><!DOCTYPE svg PUBLIC "-//W3C//DTD SVG 1.1//EN" "http://www.w3.org/Graphics/SVG/1.1/DTD/svg11.dtd"><svg width="100%" height="100%" viewBox="0 0 175 33" version="1.1" xmlns="http://www.w3.org/2000/svg" xmlns:xlink="http://www.w3.org/1999/xlink" xml:space="preserve" style="fill-rule:evenodd;clip-rule:evenodd;stroke-linejoin:round;stroke-miterlimit:1.41421;"><g id="Layer.-1"><path d="M54.352,17.454c-0.825,3.355 -3.737,5.577 -7.168,5.577c-4.446,0 -7.475,-3.545 -7.475,-7.378c0,-3.622 2.798,-7.341 7.436,-7.341c4.446,0 6.822,3.431 7.207,5.655l-3.795,0c-0.403,-1.055 -1.477,-2.473 -3.431,-2.473c-2.434,0 -3.794,2.128 -3.794,4.139c0,2.148 1.455,4.216 3.813,4.216c2.262,0 3.181,-1.897 3.412,-2.395l3.795,0Z" style="fill:#261b06;fill-rule:nonzero;"/><path d="M57.023,10.329l6.906,0l0,2.79l-3.864,0l0,1.931l3.747,0l0,2.79l-3.747,0l0,2.132l3.864,0l0,2.79l-6.906,0l0,-12.433l0,0Z" style="fill:#261b06;fill-rule:nonzero;"/><path d="M66.733,10.329l2.739,0l4.805,7.813l0.034,-0.034l-0.135,-7.779l3.041,0l0,12.433l-2.755,0l-4.738,-7.561l-0.035,0.018l0.086,7.543l-3.042,0l0,-12.433l0,0Z" style="fill:#261b06;fill-rule:nonzero;"/><path d="M81.818,13.119l-2.453,0l0,-2.79l8.066,0l0,2.79l-2.437,0l0,9.643l-3.176,0l0,-9.643Z" style="fill:#261b06;fill-rule:nonzero;"/><path d="M92.588,16.579l1.125,0c1.864,0 2.084,-1.176 2.084,-1.779c0,-1.128 -0.823,-1.681 -2.05,-1.681l-1.159,0l0,3.46Zm-3.042,-6.25l3.933,0c2.184,0 3.022,0.268 3.83,0.89c1.024,0.807 1.529,2.118 1.529,3.395c0,1.429 -0.739,3.528 -3.091,3.915l3.377,4.234l-3.629,0l-2.874,-4.017l-0.033,0l0,4.017l-3.042,0l0,-12.434l0,0Z" style="fill:#261b06;fill-rule:nonzero;"/><path d="M101.355,10.329l6.906,0l0,2.79l-3.864,0l0,1.931l3.747,0l0,2.79l-3.747,0l0,2.132l3.864,0l0,2.79l-6.906,0l0,-12.433l0,0Z" style="fill:#261b06;fill-rule:nonzero;"/><path d="M125.292,17.454c-0.825,3.355 -3.737,5.577 -7.168,5.577c-4.446,0 -7.475,-3.545 -7.475,-7.378c0,-3.622 2.798,-7.341 7.436,-7.341c4.446,0 6.822,3.431 7.207,5.655l-3.795,0c-0.403,-1.055 -1.477,-2.473 -3.431,-2.473c-2.434,0 -3.794,2.128 -3.794,4.139c0,2.148 1.455,4.216 3.813,4.216c2.262,0 3.181,-1.897 3.412,-2.395l3.795,0Z" style="fill:#261b06;fill-rule:nonzero;"/><path d="M134.03,20.209c2.251,0 3.343,-2.05 3.343,-3.647c0,-1.611 -1.092,-3.679 -3.377,-3.679c-2.202,0 -3.394,1.882 -3.394,3.63c0,1.914 1.294,3.696 3.428,3.696m-0.051,-10.115c3.831,0 6.569,2.991 6.569,6.452c0,3.461 -2.721,6.452 -6.587,6.452c-3.913,0 -6.534,-3.108 -6.534,-6.301c0,-0.822 0.117,-1.746 0.487,-2.654c0.654,-1.614 2.587,-3.949 6.065,-3.949" style="fill:#261b06;fill-rule:nonzero;"/><path d="M146.242,10.329l0,7.511c0,0.84 0.051,2.369 1.613,2.369c1.579,0 1.579,-1.378 1.579,-2.369l0,-7.511l3.176,0l0,7.511c0,2.083 -0.454,3.007 -1.243,3.813c-0.806,0.825 -1.933,1.345 -3.479,1.345c-0.908,0 -2.552,-0.219 -3.578,-1.327c-1.026,-1.127 -1.243,-2.001 -1.243,-3.831l0,-7.511l3.175,0Z" style="fill:#261b06;fill-rule:nonzero;"/><path d="M158.707,16.579l1.125,0c1.864,0 2.084,-1.176 2.084,-1.779c0,-1.128 -0.823,-1.681 -2.05,-1.681l-1.159,0l0,3.46Zm-3.042,-6.25l3.933,0c2.184,0 3.022,0.268 3.83,0.89c1.024,0.807 1.529,2.118 1.529,3.395c0,1.429 -0.739,3.528 -3.092,3.915l3.378,4.234l-3.629,0l-2.874,-4.017l-0.033,0l0,4.017l-3.042,0l0,-12.434l0,0Z" style="fill:#261b06;fill-rule:nonzero;"/><path d="M169.388,13.119l-2.453,0l0,-2.79l8.065,0l0,2.79l-2.436,0l0,9.643l-3.176,0l0,-9.643Z" style="fill:#261b06;fill-rule:nonzero;"/><path d="M27.076,18.509c-1.03,4.584 -5.121,8.009 -10.017,8.009c-5.67,0 -10.266,-4.597 -10.266,-10.268c0,-5.672 4.596,-10.268 10.266,-10.268c4.915,0 9.018,3.449 10.028,8.057l2.872,0c-1.052,-6.175 -6.427,-10.879 -12.901,-10.879c-7.231,0 -13.093,5.862 -13.093,13.091c0,7.23 5.862,13.092 13.093,13.092c6.458,0 11.822,-4.68 12.892,-10.834l-2.874,0l0,0Zm-6.558,0c-0.741,1.12 -2.013,1.858 -3.459,1.858c-2.289,0 -4.145,-1.857 -4.145,-4.149c0,-2.29 1.856,-4.146 4.145,-4.146c1.492,0 2.796,0.788 3.527,1.967l3.102,0c-0.923,-2.778 -3.538,-4.782 -6.629,-4.782c-3.859,0 -6.987,3.129 -6.987,6.987c0,3.862 3.128,6.99 6.987,6.99c3.068,0 5.665,-1.978 6.608,-4.725l-3.149,0l0,0Zm-19.718,-2.253c0,-8.979 7.277,-16.256 16.254,-16.256c8.98,0 16.255,7.277 16.255,16.256c0,8.977 -7.275,16.254 -16.255,16.254c-8.977,0 -16.254,-7.277 -16.254,-16.254" style="fill:#0069aa;fill-rule:nonzero;"/></g></svg>