<svg id="PCC_Logo" data-name="PCC Logo" xmlns="http://www.w3.org/2000/svg" width="133.756" height="205.809" viewBox="0 0 133.756 205.809">
  <path id="Union_1" data-name="Union 1" d="M44.214,88.431H0V44.216H0V0H44.216A44.216,44.216,0,0,1,88.431,44.216h0A44.215,44.215,0,0,1,44.216,88.431h0Z" transform="translate(45.325)"/>
  <g id="Group_40" data-name="Group 40" transform="translate(0 88.431)">
    <path id="Path_32" data-name="Path 32" d="M3.936,75.386H7.491c2.006,0,3.791-.079,5.062-1.449a4.586,4.586,0,0,0,1.133-3.3,4.283,4.283,0,0,0-1.29-3.317c-1.211-1.13-2.781-1.25-4.667-1.25H.284v13.9H3.936Zm0-6.532H7.451a3.061,3.061,0,0,1,1.787.4,1.641,1.641,0,0,1,.675,1.431A1.979,1.979,0,0,1,9.4,72.111a3.368,3.368,0,0,1-2.166.576h-3.3Z" transform="translate(0.372 -1.787)"/>
    <rect id="Rectangle_12" data-name="Rectangle 12" width="3.653" height="13.9" transform="translate(16.705 64.287)"/>
    <path id="Path_33" data-name="Path 33" d="M18.228,68.689a4.287,4.287,0,0,1,2.341.557A2.022,2.022,0,0,1,21.6,70.954h3.811a4.583,4.583,0,0,0-2-3.811c-1.669-1.153-4.468-1.232-5.441-1.232A8.027,8.027,0,0,0,12.031,68a7.3,7.3,0,0,0-1.925,5.321,7.218,7.218,0,0,0,2.006,5.362C13.917,80.426,16.2,80.6,18.288,80.6a8.864,8.864,0,0,0,5.022-1.091,5.354,5.354,0,0,0,2.2-4.19H21.7a2.548,2.548,0,0,1-1.033,1.965,4.315,4.315,0,0,1-2.422.536,3.991,3.991,0,0,1-2.979-1.012,4.837,4.837,0,0,1-1.19-3.513,4.953,4.953,0,0,1,1.151-3.516A3.749,3.749,0,0,1,18.228,68.689Z" transform="translate(13.252 -2.001)"/>
    <path id="Path_34" data-name="Path 34" d="M21.571,66.074H17.918v13.9h3.653V75.565l1.807-1.629,4.845,6.037,4.487-.02-6.89-8.061,6.513-5.818H27.805l-6.234,5.818Z" transform="translate(23.496 -1.787)"/>
    <path id="Path_35" data-name="Path 35" d="M38.022,77.194H28.789V74.215h7.625V71.594H28.789v-2.74H37.8v-2.78H25.136v13.9H38.022Z" transform="translate(32.962 -1.787)"/>
    <path id="Path_36" data-name="Path 36" d="M41.393,78.206a2.938,2.938,0,0,0,.536,1.768H45.8a3.956,3.956,0,0,1-.576-1.985l-.1-1.569a2.842,2.842,0,0,0-.7-2.106,2.917,2.917,0,0,0-1.627-.832V73.4a3.96,3.96,0,0,0,1.787-.973,3.243,3.243,0,0,0,.913-2.462,3.639,3.639,0,0,0-.952-2.642c-1.151-1.151-3.139-1.25-4.509-1.25H31.822v13.9h3.654v-5.1H38.89a3.011,3.011,0,0,1,1.787.495,2.278,2.278,0,0,1,.656,1.69ZM39.348,72.25H35.476v-3.4h3.832a3.973,3.973,0,0,1,1.747.3,1.543,1.543,0,0,1,.675,1.352,1.654,1.654,0,0,1-.458,1.19A2.649,2.649,0,0,1,39.348,72.25Z" transform="translate(41.729 -1.787)"/>
    <rect id="Rectangle_13" data-name="Rectangle 13" width="3.653" height="13.9" transform="translate(90.454 64.287)"/>
    <path id="Path_37" data-name="Path 37" d="M52.86,75.406l-6.989-9.332H42.3v13.9h3.653V70.641l7.008,9.332h3.555v-13.9H52.86Z" transform="translate(55.466 -1.787)"/>
    <path id="Path_38" data-name="Path 38" d="M58.523,72.763v2.263h3.22a3.219,3.219,0,0,1-1.075,2.066,4.091,4.091,0,0,1-2.66.735,3.97,3.97,0,0,1-3.056-1.033,4.656,4.656,0,0,1-1.232-3.455,5.256,5.256,0,0,1,1.19-3.613,4.081,4.081,0,0,1,3.1-1.054,4.5,4.5,0,0,1,2.284.5A2.009,2.009,0,0,1,61.4,70.856h3.811a4.624,4.624,0,0,0-2.242-3.832,9.646,9.646,0,0,0-5.224-1.13,8.173,8.173,0,0,0-5.878,1.946A7.37,7.37,0,0,0,49.749,73.4a7.486,7.486,0,0,0,1.826,5.281c1.666,1.768,3.811,1.925,5.658,1.925a8.434,8.434,0,0,0,3.495-.555A4.506,4.506,0,0,0,62.674,78.2l.12,2.006h2.579V72.763Z" transform="translate(65.237 -2.023)"/>
    <path id="Path_39" data-name="Path 39" d="M10.563,85.675a4.311,4.311,0,0,1-2.422.536A3.991,3.991,0,0,1,5.161,85.2a4.829,4.829,0,0,1-1.19-3.513A4.953,4.953,0,0,1,5.122,78.17a3.749,3.749,0,0,1,3-1.091,4.284,4.284,0,0,1,2.341.555A2.022,2.022,0,0,1,11.5,79.342H15.31A4.6,4.6,0,0,0,13.3,75.531C11.635,74.378,8.836,74.3,7.863,74.3a8.027,8.027,0,0,0-5.938,2.085A7.308,7.308,0,0,0,0,81.707a7.216,7.216,0,0,0,2.006,5.36c1.805,1.747,4.089,1.925,6.176,1.925A8.864,8.864,0,0,0,13.2,87.9a5.362,5.362,0,0,0,2.2-4.19H11.6A2.548,2.548,0,0,1,10.563,85.675Z" transform="translate(0 8.999)"/>
    <rect id="Rectangle_14" data-name="Rectangle 14" width="3.653" height="13.9" transform="translate(18.055 83.675)"/>
    <path id="Path_40" data-name="Path 40" d="M23.785,74.462H10.441v2.781h4.845V88.362H18.94V77.243h4.845Z" transform="translate(13.692 9.213)"/>
    <path id="Path_41" data-name="Path 41" d="M27.937,74.462,24.463,80.4l-3.514-5.937H16.62l5.857,8.6v5.3h3.653v-5.3l5.857-8.6Z" transform="translate(21.794 9.213)"/>
    <path id="Path_42" data-name="Path 42" d="M10.563,94.066A4.328,4.328,0,0,1,8.14,94.6a4,4,0,0,1-2.979-1.01,4.839,4.839,0,0,1-1.19-3.516,4.954,4.954,0,0,1,1.151-3.516,3.757,3.757,0,0,1,3-1.091,4.287,4.287,0,0,1,2.341.557A2.019,2.019,0,0,1,11.5,87.73H15.31A4.6,4.6,0,0,0,13.3,83.919c-1.669-1.153-4.468-1.232-5.441-1.232a8.027,8.027,0,0,0-5.938,2.085A7.308,7.308,0,0,0,0,90.095a7.216,7.216,0,0,0,2.006,5.36C3.811,97.2,6.095,97.38,8.182,97.38A8.864,8.864,0,0,0,13.2,96.289a5.358,5.358,0,0,0,2.2-4.19H11.6A2.553,2.553,0,0,1,10.563,94.066Z" transform="translate(0 19.998)"/>
    <path id="Path_43" data-name="Path 43" d="M11.465,90.992h7.625V88.37H11.465V85.63h9.014V82.85H7.812v13.9H20.7V93.97H11.465Z" transform="translate(10.243 20.212)"/>
    <path id="Path_44" data-name="Path 44" d="M25.06,92.182,18.071,82.85H14.5v13.9h3.653V87.418l7.008,9.332h3.555V82.85H25.06Z" transform="translate(19.011 20.212)"/>
    <path id="Path_45" data-name="Path 45" d="M21.7,85.63h4.845V96.75H30.2V85.63h4.845V82.85H21.7Z" transform="translate(28.454 20.212)"/>
    <path id="Path_46" data-name="Path 46" d="M41.8,93.2a2.847,2.847,0,0,0-.693-2.1,2.934,2.934,0,0,0-1.629-.834v-.081a3.916,3.916,0,0,0,1.787-.973,3.236,3.236,0,0,0,.915-2.462,3.64,3.64,0,0,0-.955-2.64c-1.151-1.153-3.136-1.253-4.507-1.253H28.5v13.9h3.652v-5.1h3.416a3.012,3.012,0,0,1,1.787.5,2.272,2.272,0,0,1,.654,1.687l.06,1.151A2.933,2.933,0,0,0,38.6,96.75h3.871a3.956,3.956,0,0,1-.576-1.985Zm-3.853-4.727a2.645,2.645,0,0,1-1.925.557H32.149v-3.4h3.832a3.971,3.971,0,0,1,1.747.3,1.542,1.542,0,0,1,.675,1.35A1.654,1.654,0,0,1,37.946,88.469Z" transform="translate(37.369 20.212)"/>
    <path id="Path_47" data-name="Path 47" d="M39.463,90.992h7.625V88.37H39.463V85.63h9.014V82.85H35.81v13.9H48.7V93.97H39.463Z" transform="translate(46.958 20.212)"/>
    <rect id="Rectangle_15" data-name="Rectangle 15" width="44.216" height="44.215" transform="translate(1.11)"/>
  </g>
</svg>
